<svg id="Layer_1" data-name="Layer 1" xmlns="http://www.w3.org/2000/svg" viewBox="0 0 24 24"><defs><style>.cls-1{fill:#f2887e;}</style></defs><circle class="cls-1" cx="12" cy="15.3" r="2.93"/><path class="cls-1" d="M3.2,18.67l7.7,4.4a2.21,2.21,0,0,0,2.2,0l7.7-4.4a2.2,2.2,0,0,0,1.1-1.91V8a2.2,2.2,0,0,0-1.1-1.91l-7.7-4.4a2.21,2.21,0,0,0-2.2,0L3.2,6.06A2.2,2.2,0,0,0,2.1,8v8.79A2.2,2.2,0,0,0,3.2,18.67ZM4.3,8,12,3.57,19.7,8v8.79L12,21.16l-7.7-4.4Z"/><circle class="cls-1" cx="8.52" cy="10.35" r="1.28"/><circle class="cls-1" cx="15.48" cy="10.35" r="1.28"/></svg>