<svg id="Layer_1" data-name="Layer 1" xmlns="http://www.w3.org/2000/svg" viewBox="0 0 24 24"><defs><style>.cls-1{fill:#f2887e;}</style></defs><path class="cls-1" d="M14.53,16.76a2.89,2.89,0,0,0,.4-1.46,2.93,2.93,0,1,0-5.86,0,2.89,2.89,0,0,0,.4,1.46Z"/><circle class="cls-1" cx="8.52" cy="9.98" r="1.28"/><circle class="cls-1" cx="15.48" cy="9.98" r="1.28"/><path class="cls-1" d="M3.2,18.31l7.7,4.4a2.21,2.21,0,0,0,2.2,0L17.79,20a3.67,3.67,0,0,1-1-2L12,20.8,4.3,16.4V7.6L12,3.2l7.7,4.4v6.31a3.7,3.7,0,0,1,2.2.23V7.6a2.21,2.21,0,0,0-1.1-1.91l-7.7-4.4a2.21,2.21,0,0,0-2.2,0L3.2,5.69A2.21,2.21,0,0,0,2.1,7.6v8.8A2.21,2.21,0,0,0,3.2,18.31Z"/><circle class="cls-1" cx="20.43" cy="17.5" r="1.47"/></svg>