<svg id="Layer_1" data-name="Layer 1" xmlns="http://www.w3.org/2000/svg" viewBox="0 0 24 24"><defs><style>.cls-1{fill:#f2887e;}</style></defs><path class="cls-1" d="M21.9,8a2.2,2.2,0,0,0-1.1-1.91l-7.7-4.4a2.21,2.21,0,0,0-2.2,0L3.2,6.06A2.2,2.2,0,0,0,2.1,8v8.79a2.2,2.2,0,0,0,1.1,1.91l7.7,4.4a2.21,2.21,0,0,0,2.2,0l7.7-4.4a2.2,2.2,0,0,0,1.1-1.91Zm-2.2,8.79L12,21.16l-7.7-4.4V8L12,3.57,19.7,8Z"/><circle class="cls-1" cx="8.15" cy="13.65" r="1.28"/><circle class="cls-1" cx="12.55" cy="8.89" r="1.28"/><path class="cls-1" d="M11.42,14.77A1.81,1.81,0,0,0,10.9,16v0a1.78,1.78,0,0,0,1.78,1.79h.05A1.78,1.78,0,0,0,14,17.34l2.24-2.24a1.82,1.82,0,0,0-2.57-2.57Z"/></svg>