<svg id="Layer_1" data-name="Layer 1" xmlns="http://www.w3.org/2000/svg" viewBox="0 0 24 24"><defs><style>.cls-1{fill:#fff;}</style></defs><path class="cls-1" d="M9.57.22a1.23,1.23,0,0,0-.89.37h0L4.91,4.39h0a1.28,1.28,0,0,0,0,1.79L18,19.32a1.28,1.28,0,0,0,.9.37l3.8,0h0a1.27,1.27,0,0,0,.89-.37,1.29,1.29,0,0,0,.37-.91h0l0-3.81a1.35,1.35,0,0,0-.35-.88l0,0h0L13.11,3.23,10.48.59h0a1.29,1.29,0,0,0-.9-.36Zm0,3.06.84.84-2,2-.83-.84Zm2.65,2.65,9.22,9.22v2h-2L10.22,7.92ZM1.28,21.26a1.26,1.26,0,1,0,0,2.52H22.72a1.26,1.26,0,1,0,0-2.52Z"/></svg>