<svg id="Layer_1" data-name="Layer 1" xmlns="http://www.w3.org/2000/svg" viewBox="0 0 24 24"><defs><style>.cls-1{fill:#f2887e;}</style></defs><path class="cls-1" d="M10.72,16.76h2.56a2,2,0,1,0,0-4H10.72a2,2,0,1,0,0,4Z"/><circle class="cls-1" cx="8.52" cy="9.62" r="1.28"/><circle class="cls-1" cx="15.48" cy="9.62" r="1.28"/><path class="cls-1" d="M2.1,7.6v8.8a2.21,2.21,0,0,0,1.1,1.91l7.7,4.4a2.21,2.21,0,0,0,2.2,0l7.7-4.4a2.21,2.21,0,0,0,1.1-1.91V9.88a4,4,0,0,1-2.2.65V16.4L12,20.8,4.3,16.4V7.6L12,3.2l3.86,2.2a8.87,8.87,0,0,1,1-2L13.1,1.29a2.21,2.21,0,0,0-2.2,0L3.2,5.69A2.21,2.21,0,0,0,2.1,7.6Z"/><path class="cls-1" d="M17.86,6.5a1.84,1.84,0,1,0,3.67,0c0-1-1.83-3.3-1.83-3.3S17.86,5.49,17.86,6.5Z"/></svg>