<svg id="Layer_1" data-name="Layer 1" xmlns="http://www.w3.org/2000/svg" viewBox="0 0 24 24"><defs><style>.cls-1{fill:#fff;}</style></defs><path class="cls-1" d="M3.5,17.05v1a2.92,2.92,0,0,0,2.91,2.91H18.07A2.91,2.91,0,0,0,21,18V17H3.5Z"/><path class="cls-1" d="M20,11.23H4.45a1.94,1.94,0,1,0,0,3.88H20a1.94,1.94,0,1,0,0-3.88Z"/><path class="cls-1" d="M12.24,3.45c-4.37,0-7.62,2.32-8.49,5.83h17C19.87,5.77,16.63,3.45,12.24,3.45ZM10.3,7.34a1,1,0,1,1,1-1A1,1,0,0,1,10.3,7.34Zm3.89,1a1,1,0,1,1,1-1A1,1,0,0,1,14.19,8.31Z"/></svg>