<svg id="Layer_1" data-name="Layer 1" xmlns="http://www.w3.org/2000/svg" viewBox="0 0 24 24"><defs><style>.cls-1{fill:#f2887e;}</style></defs><path class="cls-1" d="M13.73,16l.43.43,1.55-1.55-.41-.45a4.64,4.64,0,0,0-6.56,0l-.43.43,1.55,1.55.43-.43a2.44,2.44,0,0,1,3.45,0Z"/><path class="cls-1" d="M3.2,18.31l7.7,4.4a2.21,2.21,0,0,0,2.2,0l7.7-4.4a2.21,2.21,0,0,0,1.1-1.91V7.6a2.21,2.21,0,0,0-1.1-1.91l-7.7-4.4a2.21,2.21,0,0,0-2.2,0L3.2,5.69A2.21,2.21,0,0,0,2.1,7.6v8.8A2.21,2.21,0,0,0,3.2,18.31ZM4.3,7.6,12,3.2l7.7,4.4v8.8L12,20.8,4.3,16.4Z"/><circle class="cls-1" cx="8.52" cy="9.98" r="1.28"/><circle class="cls-1" cx="15.48" cy="9.98" r="1.28"/></svg>