<svg id="Layer_1" data-name="Layer 1" xmlns="http://www.w3.org/2000/svg" viewBox="0 0 24 24"><defs><style>.cls-1{fill:#fff;}</style></defs><path class="cls-1" d="M20.54,9.19A.65.65,0,0,1,20,8.83a.5.5,0,0,1,.14-.66,2.47,2.47,0,0,0,0-3.49L19.44,4A2.48,2.48,0,0,0,16,4a.61.61,0,0,1-.66.15.58.58,0,0,1-.37-.59,2.45,2.45,0,0,0-2.45-2.45h-1A2.45,2.45,0,0,0,9.07,3.58a.66.66,0,0,1-.37.59A.51.51,0,0,1,8,4,2.48,2.48,0,0,0,4.56,4l-.66.66a2.47,2.47,0,0,0,0,3.49A.62.62,0,0,1,4,8.83a.56.56,0,0,1-.58.36A2.46,2.46,0,0,0,1,11.65v.95a2.46,2.46,0,0,0,2.46,2.46.66.66,0,0,1,.58.37.5.5,0,0,1-.14.66,2.46,2.46,0,0,0,0,3.48l.66.66a2.48,2.48,0,0,0,3.48,0,.63.63,0,0,1,.66-.15.59.59,0,0,1,.37.59,2.46,2.46,0,0,0,2.45,2.46h1a2.46,2.46,0,0,0,2.45-2.46.68.68,0,0,1,.37-.59.57.57,0,0,1,.66.15,2.48,2.48,0,0,0,3.48,0l.66-.66a2.46,2.46,0,0,0,0-3.48.62.62,0,0,1-.14-.66.56.56,0,0,1,.58-.37A2.46,2.46,0,0,0,23,12.6v-.95A2.46,2.46,0,0,0,20.54,9.19Zm.63,3.41a.65.65,0,0,1-.63.63,2.46,2.46,0,0,0-1.76,4.18.59.59,0,0,1,0,.88l-.66.66a.61.61,0,0,1-.88,0,2.46,2.46,0,0,0-2.67-.55,2.43,2.43,0,0,0-1.51,2.27.64.64,0,0,1-.62.62h-.95a.65.65,0,0,1-.63-.62,2.42,2.42,0,0,0-1.5-2.27,2.15,2.15,0,0,0-.95-.19A2.45,2.45,0,0,0,6.68,19a.61.61,0,0,1-.88,0l-.66-.66a.61.61,0,0,1,0-.88,2.48,2.48,0,0,0,.55-2.68,2.42,2.42,0,0,0-2.27-1.5.62.62,0,0,1-.59-.63v-.95A.62.62,0,0,1,3.46,11,2.44,2.44,0,0,0,5.73,9.52a2.38,2.38,0,0,0-.55-2.67.59.59,0,0,1,0-.88l.66-.66a.59.59,0,0,1,.88,0,2.52,2.52,0,0,0,2.68.55,2.46,2.46,0,0,0,1.5-2.28A.62.62,0,0,1,11.52,3h1a.62.62,0,0,1,.62.62,2.46,2.46,0,0,0,1.5,2.28,2.44,2.44,0,0,0,2.68-.52.61.61,0,0,1,.88,0l.66.66a.59.59,0,0,1,0,.88,2.48,2.48,0,0,0-.55,2.68,2.43,2.43,0,0,0,2.27,1.5.65.65,0,0,1,.63.63ZM12,7.76a4.37,4.37,0,1,0,4.36,4.37A4.38,4.38,0,0,0,12,7.76Zm0,6.9a2.53,2.53,0,1,1,2.53-2.53A2.54,2.54,0,0,1,12,14.66Z"/></svg>