<svg id="Layer_1" data-name="Layer 1" xmlns="http://www.w3.org/2000/svg" viewBox="0 0 24 24"><defs><style>.cls-1{fill:#f2887e;}</style></defs><circle class="cls-1" cx="13.73" cy="14.93" r="2.2"/><path class="cls-1" d="M3.1,18.31l7.7,4.4a2.21,2.21,0,0,0,2.2,0l7.7-4.4a2.21,2.21,0,0,0,1.1-1.91V7.6a2.21,2.21,0,0,0-1.1-1.91L13,1.29a2.21,2.21,0,0,0-2.2,0L3.1,5.69A2.21,2.21,0,0,0,2,7.6v8.8A2.21,2.21,0,0,0,3.1,18.31ZM4.2,7.6l7.7-4.4,7.7,4.4v8.8l-7.7,4.4L4.2,16.4Z"/><circle class="cls-1" cx="8.42" cy="9.98" r="1.28"/><circle class="cls-1" cx="15.38" cy="9.98" r="1.28"/></svg>