<svg width="24" height="24" viewBox="0 0 24 24" fill="none" xmlns="http://www.w3.org/2000/svg">
<rect x="5" y="16" width="14" height="3" rx="1" fill="url(#paint0_linear)"/>
<rect x="5" y="10" width="14" height="3" rx="1" fill="url(#paint1_linear)"/>
<rect x="5" y="4" width="14" height="3" rx="1" fill="url(#paint2_linear)"/>
<g filter="url(#filter0_bi)">
<path d="M3 6C3 5.44772 3.44772 5 4 5H20C20.5523 5 21 5.44772 21 6V7C21 7.55228 20.5523 8 20 8H4C3.44772 8 3 7.55228 3 7V6Z" fill="#1D1D1D" fill-opacity="0.05"/>
<path d="M3 6C3 5.44772 3.44772 5 4 5H20C20.5523 5 21 5.44772 21 6V7C21 7.55228 20.5523 8 20 8H4C3.44772 8 3 7.55228 3 7V6Z" fill="url(#paint3_linear)" fill-opacity="0.2"/>
<path d="M3 12C3 11.4477 3.44772 11 4 11H20C20.5523 11 21 11.4477 21 12V13C21 13.5523 20.5523 14 20 14H4C3.44772 14 3 13.5523 3 13V12Z" fill="#1D1D1D" fill-opacity="0.05"/>
<path d="M3 12C3 11.4477 3.44772 11 4 11H20C20.5523 11 21 11.4477 21 12V13C21 13.5523 20.5523 14 20 14H4C3.44772 14 3 13.5523 3 13V12Z" fill="url(#paint4_linear)" fill-opacity="0.2"/>
<path d="M3 18C3 17.4477 3.44772 17 4 17H20C20.5523 17 21 17.4477 21 18V19C21 19.5523 20.5523 20 20 20H4C3.44772 20 3 19.5523 3 19V18Z" fill="#1D1D1D" fill-opacity="0.05"/>
<path d="M3 18C3 17.4477 3.44772 17 4 17H20C20.5523 17 21 17.4477 21 18V19C21 19.5523 20.5523 20 20 20H4C3.44772 20 3 19.5523 3 19V18Z" fill="url(#paint5_linear)" fill-opacity="0.2"/>
<path d="M3.1 6C3.1 5.50294 3.50294 5.1 4 5.1H20C20.4971 5.1 20.9 5.50294 20.9 6V7C20.9 7.49706 20.4971 7.9 20 7.9H4C3.50294 7.9 3.1 7.49706 3.1 7V6ZM3.1 12C3.1 11.5029 3.50294 11.1 4 11.1H20C20.4971 11.1 20.9 11.5029 20.9 12V13C20.9 13.4971 20.4971 13.9 20 13.9H4C3.50294 13.9 3.1 13.4971 3.1 13V12ZM3.1 18C3.1 17.5029 3.50294 17.1 4 17.1H20C20.4971 17.1 20.9 17.5029 20.9 18V19C20.9 19.4971 20.4971 19.9 20 19.9H4C3.50294 19.9 3.1 19.4971 3.1 19V18Z" stroke="url(#paint6_linear)" stroke-opacity="0.1" stroke-width="0.2"/>
</g>
<defs>
<filter id="filter0_bi" x="0" y="2" width="24" height="21" filterUnits="userSpaceOnUse" color-interpolation-filters="sRGB">
<feFlood flood-opacity="0" result="BackgroundImageFix"/>
<feGaussianBlur in="BackgroundImage" stdDeviation="1.5"/>
<feComposite in2="SourceAlpha" operator="in" result="effect1_backgroundBlur"/>
<feBlend mode="normal" in="SourceGraphic" in2="effect1_backgroundBlur" result="shape"/>
<feColorMatrix in="SourceAlpha" type="matrix" values="0 0 0 0 0 0 0 0 0 0 0 0 0 0 0 0 0 0 127 0" result="hardAlpha"/>
<feOffset dy="0.5"/>
<feGaussianBlur stdDeviation="1"/>
<feComposite in2="hardAlpha" operator="arithmetic" k2="-1" k3="1"/>
<feColorMatrix type="matrix" values="0 0 0 0 1 0 0 0 0 1 0 0 0 0 1 0 0 0 0.15 0"/>
<feBlend mode="normal" in2="shape" result="effect2_innerShadow"/>
</filter>
<linearGradient id="paint0_linear" x1="5" y1="16" x2="6.19854" y2="21.5932" gradientUnits="userSpaceOnUse">
<stop stop-color="#BAF2B5"/>
<stop offset="1" stop-color="#26AAD4"/>
</linearGradient>
<linearGradient id="paint1_linear" x1="5" y1="10" x2="6.19854" y2="15.5932" gradientUnits="userSpaceOnUse">
<stop stop-color="#BAF2B5"/>
<stop offset="1" stop-color="#26AAD4"/>
</linearGradient>
<linearGradient id="paint2_linear" x1="5" y1="4" x2="6.19854" y2="9.59317" gradientUnits="userSpaceOnUse">
<stop stop-color="#BAF2B5"/>
<stop offset="1" stop-color="#26AAD4"/>
</linearGradient>
<linearGradient id="paint3_linear" x1="3" y1="5" x2="17.3852" y2="22.2623" gradientUnits="userSpaceOnUse">
<stop stop-color="#BAF2B5"/>
<stop offset="1" stop-color="#26AAD4"/>
</linearGradient>
<linearGradient id="paint4_linear" x1="3" y1="5" x2="17.3852" y2="22.2623" gradientUnits="userSpaceOnUse">
<stop stop-color="#BAF2B5"/>
<stop offset="1" stop-color="#26AAD4"/>
</linearGradient>
<linearGradient id="paint5_linear" x1="3" y1="5" x2="17.3852" y2="22.2623" gradientUnits="userSpaceOnUse">
<stop stop-color="#BAF2B5"/>
<stop offset="1" stop-color="#26AAD4"/>
</linearGradient>
<linearGradient id="paint6_linear" x1="3.5625" y1="5.68182" x2="21" y2="5.68182" gradientUnits="userSpaceOnUse">
<stop stop-color="#ADECB8"/>
<stop offset="1" stop-color="#2FAED3"/>
</linearGradient>
</defs>
</svg>
