<?xml version="1.0" encoding="utf-8"?>
<!-- Generator: Adobe Illustrator 25.0.0, SVG Export Plug-In . SVG Version: 6.00 Build 0)  -->
<svg version="1.1" id="Layer_1" xmlns="http://www.w3.org/2000/svg" xmlns:xlink="http://www.w3.org/1999/xlink" x="0px" y="0px"
	 viewBox="0 0 190.36 203.12" style="enable-background:new 0 0 190.36 203.12;" xml:space="preserve">
<style type="text/css">
	.st0{opacity:0.14;}
	.st1{opacity:0.14;fill:url(#SVGID_1_);enable-background:new    ;}
	.st2{opacity:0.14;fill:url(#SVGID_2_);enable-background:new    ;}
	.st3{opacity:0.14;fill:url(#SVGID_3_);enable-background:new    ;}
	.st4{opacity:0.14;fill:url(#SVGID_4_);enable-background:new    ;}
	.st5{opacity:0.14;fill:url(#SVGID_5_);enable-background:new    ;}
	.st6{opacity:0.14;fill:url(#SVGID_6_);enable-background:new    ;}
	.st7{opacity:0.14;fill:url(#SVGID_7_);enable-background:new    ;}
	.st8{opacity:0.14;fill:url(#SVGID_8_);enable-background:new    ;}
	.st9{opacity:0.5;}
	.st10{opacity:0.5;fill:url(#SVGID_9_);enable-background:new    ;}
	.st11{opacity:0.5;fill:url(#SVGID_10_);enable-background:new    ;}
	.st12{opacity:0.5;fill:url(#SVGID_11_);enable-background:new    ;}
	.st13{opacity:0.5;fill:url(#SVGID_12_);enable-background:new    ;}
	.st14{opacity:0.5;fill:url(#SVGID_13_);enable-background:new    ;}
	.st15{opacity:0.5;fill:url(#SVGID_14_);enable-background:new    ;}
	.st16{opacity:0.5;fill:url(#SVGID_15_);enable-background:new    ;}
	.st17{opacity:0.5;fill:url(#SVGID_16_);enable-background:new    ;}
	.st18{fill:url(#SVGID_17_);}
	.st19{fill:url(#SVGID_18_);}
	.st20{fill:url(#SVGID_19_);}
	.st21{fill:url(#SVGID_20_);}
	.st22{fill:url(#SVGID_21_);}
	.st23{fill:url(#SVGID_22_);}
	.st24{fill:url(#SVGID_23_);}
	.st25{fill:url(#SVGID_24_);}
	.st26{opacity:0.5;fill:url(#SVGID_25_);enable-background:new    ;}
	.st27{opacity:0.5;fill:url(#SVGID_26_);enable-background:new    ;}
	.st28{opacity:0.5;fill:url(#SVGID_27_);enable-background:new    ;}
	.st29{opacity:0.5;fill:url(#SVGID_28_);enable-background:new    ;}
	.st30{opacity:0.5;fill:url(#SVGID_29_);enable-background:new    ;}
	.st31{opacity:0.5;fill:url(#SVGID_30_);enable-background:new    ;}
	.st32{opacity:0.5;fill:url(#SVGID_31_);enable-background:new    ;}
	.st33{opacity:0.5;fill:url(#SVGID_32_);enable-background:new    ;}
</style>
<g class="st0">
	
		<linearGradient id="SVGID_1_" gradientUnits="userSpaceOnUse" x1="74.6478" y1="-9.3069" x2="118.2708" y2="-152.0742" gradientTransform="matrix(1 0 0 -1 0.0278 33.4126)">
		<stop  offset="0" style="stop-color:#1A736A"/>
		<stop  offset="1" style="stop-color:#1A736A"/>
	</linearGradient>
	<path class="st1" d="M95.18,205c52.57,0,95.18-42.61,95.18-95.18c0-52.57-42.61-95.18-95.18-95.18C42.61,14.64,0,57.26,0,109.82
		C0,162.39,42.61,205,95.18,205z"/>
	
		<radialGradient id="SVGID_2_" cx="-194.1716" cy="433.0228" r="1" gradientTransform="matrix(71.384 -63.4523 -60.8219 -68.4248 40221.8203 17470.2168)" gradientUnits="userSpaceOnUse">
		<stop  offset="0.0885" style="stop-color:#F2887E"/>
		<stop  offset="1" style="stop-color:#F2887E;stop-opacity:0.58"/>
	</radialGradient>
	<path class="st2" d="M95.18,205c52.57,0,95.18-42.61,95.18-95.18c0-52.57-42.61-95.18-95.18-95.18C42.61,14.64,0,57.26,0,109.82
		C0,162.39,42.61,205,95.18,205z"/>
	
		<radialGradient id="SVGID_3_" cx="-197.2333" cy="439.0034" r="1" gradientTransform="matrix(-63.4519 -73.3673 -70.3258 60.8215 18525.0195 -40978.2227)" gradientUnits="userSpaceOnUse">
		<stop  offset="0" style="stop-color:#9BBFAB"/>
		<stop  offset="1" style="stop-color:#9BBFAB;stop-opacity:0"/>
	</radialGradient>
	<path class="st3" d="M95.18,205c52.57,0,95.18-42.61,95.18-95.18c0-52.57-42.61-95.18-95.18-95.18C42.61,14.64,0,57.26,0,109.82
		C0,162.39,42.61,205,95.18,205z"/>
	
		<radialGradient id="SVGID_4_" cx="-192.7617" cy="441.5876" r="1" gradientTransform="matrix(-107.0759 51.5552 49.4178 102.6367 -42242.3086 -35289.2734)" gradientUnits="userSpaceOnUse">
		<stop  offset="0" style="stop-color:#F2E4DC"/>
		<stop  offset="1" style="stop-color:#F2E4DC;stop-opacity:0"/>
	</radialGradient>
	<path class="st4" d="M95.18,205c52.57,0,95.18-42.61,95.18-95.18c0-52.57-42.61-95.18-95.18-95.18C42.61,14.64,0,57.26,0,109.82
		C0,162.39,42.61,205,95.18,205z"/>
	
		<radialGradient id="SVGID_5_" cx="-190.2083" cy="441.0891" r="1" gradientTransform="matrix(-47.5893 95.1787 91.2334 45.6166 -49151.168 -2002.5612)" gradientUnits="userSpaceOnUse">
		<stop  offset="0" style="stop-color:#9BBFAB"/>
		<stop  offset="1" style="stop-color:#9BBFAB;stop-opacity:0"/>
	</radialGradient>
	<path class="st5" d="M95.18,205c52.57,0,95.18-42.61,95.18-95.18c0-52.57-42.61-95.18-95.18-95.18C42.61,14.64,0,57.26,0,109.82
		C0,162.39,42.61,205,95.18,205z"/>
	
		<radialGradient id="SVGID_6_" cx="-190.5598" cy="436.1586" r="1" gradientTransform="matrix(138.8024 103.1105 83.6077 -112.5487 -10039.835 68744.4844)" gradientUnits="userSpaceOnUse">
		<stop  offset="0" style="stop-color:#FFFFFF;stop-opacity:0.79"/>
		<stop  offset="1" style="stop-color:#FFFFFF;stop-opacity:0"/>
	</radialGradient>
	<path class="st6" d="M95.18,205c52.57,0,95.18-42.61,95.18-95.18c0-52.57-42.61-95.18-95.18-95.18C42.61,14.64,0,57.26,0,109.82
		C0,162.39,42.61,205,95.18,205z"/>
	
		<radialGradient id="SVGID_7_" cx="-186.8596" cy="434.6587" r="1" gradientTransform="matrix(49.5721 49.5721 36.0042 -36.0042 -6370.6309 24943.0664)" gradientUnits="userSpaceOnUse">
		<stop  offset="0" style="stop-color:#FFFFFF;stop-opacity:0.49"/>
		<stop  offset="1" style="stop-color:#FFFFFF;stop-opacity:0"/>
	</radialGradient>
	<path class="st7" d="M95.18,205c52.57,0,95.18-42.61,95.18-95.18c0-52.57-42.61-95.18-95.18-95.18C42.61,14.64,0,57.26,0,109.82
		C0,162.39,42.61,205,95.18,205z"/>
	
		<radialGradient id="SVGID_8_" cx="-184.8269" cy="435.0279" r="1" gradientTransform="matrix(34.6104 41.0998 33.9117 -28.5572 -8223.6357 20129.3438)" gradientUnits="userSpaceOnUse">
		<stop  offset="0" style="stop-color:#FFFFFF;stop-opacity:0.15"/>
		<stop  offset="1" style="stop-color:#FFFFFF;stop-opacity:0"/>
	</radialGradient>
	<path class="st8" d="M95.18,205c52.57,0,95.18-42.61,95.18-95.18c0-52.57-42.61-95.18-95.18-95.18C42.61,14.64,0,57.26,0,109.82
		C0,162.39,42.61,205,95.18,205z"/>
	<g class="st9">
		
			<linearGradient id="SVGID_9_" gradientUnits="userSpaceOnUse" x1="74.6478" y1="-9.3069" x2="118.2708" y2="-152.0742" gradientTransform="matrix(1 0 0 -1 0.0278 33.4126)">
			<stop  offset="0" style="stop-color:#1A736A"/>
			<stop  offset="1" style="stop-color:#1A736A"/>
		</linearGradient>
		<path class="st10" d="M95.18,205c52.57,0,95.18-42.61,95.18-95.18c0-52.57-42.61-95.18-95.18-95.18C42.61,14.64,0,57.26,0,109.82
			C0,162.39,42.61,205,95.18,205z"/>
		
			<radialGradient id="SVGID_10_" cx="-194.1716" cy="433.0228" r="1" gradientTransform="matrix(71.384 -63.4523 -60.8219 -68.4248 40221.8203 17470.2168)" gradientUnits="userSpaceOnUse">
			<stop  offset="0.0885" style="stop-color:#F2887E"/>
			<stop  offset="1" style="stop-color:#F2887E;stop-opacity:0.58"/>
		</radialGradient>
		<path class="st11" d="M95.18,205c52.57,0,95.18-42.61,95.18-95.18c0-52.57-42.61-95.18-95.18-95.18C42.61,14.64,0,57.26,0,109.82
			C0,162.39,42.61,205,95.18,205z"/>
		
			<radialGradient id="SVGID_11_" cx="-197.2333" cy="439.0034" r="1" gradientTransform="matrix(-63.4519 -73.3673 -70.3258 60.8215 18525.0195 -40978.2227)" gradientUnits="userSpaceOnUse">
			<stop  offset="0" style="stop-color:#9BBFAB"/>
			<stop  offset="1" style="stop-color:#9BBFAB;stop-opacity:0"/>
		</radialGradient>
		<path class="st12" d="M95.18,205c52.57,0,95.18-42.61,95.18-95.18c0-52.57-42.61-95.18-95.18-95.18C42.61,14.64,0,57.26,0,109.82
			C0,162.39,42.61,205,95.18,205z"/>
		
			<radialGradient id="SVGID_12_" cx="-192.7617" cy="441.5876" r="1" gradientTransform="matrix(-107.0759 51.5552 49.4178 102.6367 -42242.3086 -35289.2734)" gradientUnits="userSpaceOnUse">
			<stop  offset="0" style="stop-color:#F2E4DC"/>
			<stop  offset="1" style="stop-color:#F2E4DC;stop-opacity:0"/>
		</radialGradient>
		<path class="st13" d="M95.18,205c52.57,0,95.18-42.61,95.18-95.18c0-52.57-42.61-95.18-95.18-95.18C42.61,14.64,0,57.26,0,109.82
			C0,162.39,42.61,205,95.18,205z"/>
		
			<radialGradient id="SVGID_13_" cx="-190.5614" cy="440.589" r="1" gradientTransform="matrix(-54.7452 111.3109 106.6968 52.4759 -57298.9844 -1894.0955)" gradientUnits="userSpaceOnUse">
			<stop  offset="0" style="stop-color:#9BBFAB"/>
			<stop  offset="1" style="stop-color:#9BBFAB;stop-opacity:0"/>
		</radialGradient>
		<path class="st14" d="M95.18,205c52.57,0,95.18-42.61,95.18-95.18c0-52.57-42.61-95.18-95.18-95.18C42.61,14.64,0,57.26,0,109.82
			C0,162.39,42.61,205,95.18,205z"/>
		
			<radialGradient id="SVGID_14_" cx="-190.5465" cy="436.3403" r="1" gradientTransform="matrix(135.9572 112.8526 91.5073 -110.2419 -14045.9727 69613.3516)" gradientUnits="userSpaceOnUse">
			<stop  offset="0" style="stop-color:#FFFFFF;stop-opacity:0.79"/>
			<stop  offset="1" style="stop-color:#FFFFFF;stop-opacity:0"/>
		</radialGradient>
		<path class="st15" d="M95.18,205c52.57,0,95.18-42.61,95.18-95.18c0-52.57-42.61-95.18-95.18-95.18C42.61,14.64,0,57.26,0,109.82
			C0,162.39,42.61,205,95.18,205z"/>
		
			<radialGradient id="SVGID_15_" cx="-188.7028" cy="435.4235" r="1" gradientTransform="matrix(72.8698 69.1782 50.2439 -52.9252 -8110.7881 36129.4766)" gradientUnits="userSpaceOnUse">
			<stop  offset="0" style="stop-color:#FFFFFF;stop-opacity:0.49"/>
			<stop  offset="1" style="stop-color:#FFFFFF;stop-opacity:0"/>
		</radialGradient>
		<path class="st16" d="M95.18,205c52.57,0,95.18-42.61,95.18-95.18c0-52.57-42.61-95.18-95.18-95.18C42.61,14.64,0,57.26,0,109.82
			C0,162.39,42.61,205,95.18,205z"/>
		
			<radialGradient id="SVGID_16_" cx="-187.3905" cy="431.5188" r="1" gradientTransform="matrix(55.4744 22.5226 18.5835 -45.7722 2511.1555 24081.9023)" gradientUnits="userSpaceOnUse">
			<stop  offset="0" style="stop-color:#FFFFFF;stop-opacity:0.49"/>
			<stop  offset="1" style="stop-color:#F2E4DC;stop-opacity:0.43"/>
		</radialGradient>
		<path class="st17" d="M95.18,205c52.57,0,95.18-42.61,95.18-95.18c0-52.57-42.61-95.18-95.18-95.18C42.61,14.64,0,57.26,0,109.82
			C0,162.39,42.61,205,95.18,205z"/>
	</g>
</g>
<linearGradient id="SVGID_17_" gradientUnits="userSpaceOnUse" x1="79.4326" y1="-31.0917" x2="108.9716" y2="-127.7659" gradientTransform="matrix(1 0 0 -1 0.0278 33.4126)">
	<stop  offset="0" style="stop-color:#1A736A"/>
	<stop  offset="1" style="stop-color:#1A736A"/>
</linearGradient>
<path class="st18" d="M158.18,109.82c0,35.59-28.85,64.45-64.45,64.45c-35.59,0-64.45-28.85-64.45-64.45
	C29.29,74.23,86.41,0,93.73,0C101.06,0,158.18,74.23,158.18,109.82z"/>
<radialGradient id="SVGID_18_" cx="-194.8154" cy="430.8028" r="1" gradientTransform="matrix(48.3371 -42.9662 -41.1851 -46.3333 27204.8535 11734.7539)" gradientUnits="userSpaceOnUse">
	<stop  offset="0.0885" style="stop-color:#F2887E"/>
	<stop  offset="1" style="stop-color:#F2887E;stop-opacity:0.58"/>
</radialGradient>
<path class="st19" d="M158.18,109.82c0,35.59-28.85,64.45-64.45,64.45c-35.59,0-64.45-28.85-64.45-64.45
	C29.29,74.23,86.41,0,93.73,0C101.06,0,158.18,74.23,158.18,109.82z"/>
<radialGradient id="SVGID_19_" cx="-199.3369" cy="439.635" r="1" gradientTransform="matrix(-42.9659 -49.68 -47.6206 41.1848 12513.0537 -27843.1387)" gradientUnits="userSpaceOnUse">
	<stop  offset="0" style="stop-color:#9BBFAB"/>
	<stop  offset="1" style="stop-color:#9BBFAB;stop-opacity:0"/>
</radialGradient>
<path class="st20" d="M158.18,109.82c0,35.59-28.85,64.45-64.45,64.45c-35.59,0-64.45-28.85-64.45-64.45
	C29.29,74.23,86.41,0,93.73,0C101.06,0,158.18,74.23,158.18,109.82z"/>
<radialGradient id="SVGID_20_" cx="-192.7333" cy="443.4514" r="1" gradientTransform="matrix(-72.5056 34.9102 33.463 69.4999 -28635.123 -23991.0508)" gradientUnits="userSpaceOnUse">
	<stop  offset="0" style="stop-color:#F2E4DC"/>
	<stop  offset="1" style="stop-color:#F2E4DC;stop-opacity:0"/>
</radialGradient>
<path class="st21" d="M158.18,109.82c0,35.59-28.85,64.45-64.45,64.45c-35.59,0-64.45-28.85-64.45-64.45
	C29.29,74.23,86.41,0,93.73,0C101.06,0,158.18,74.23,158.18,109.82z"/>
<radialGradient id="SVGID_21_" cx="-188.9625" cy="442.7152" r="1" gradientTransform="matrix(-32.2246 64.4494 61.7778 30.8888 -33313.2422 -1451.0533)" gradientUnits="userSpaceOnUse">
	<stop  offset="0" style="stop-color:#09403A"/>
	<stop  offset="1" style="stop-color:#09403A;stop-opacity:0"/>
</radialGradient>
<path class="st22" d="M158.18,109.82c0,35.59-28.85,64.45-64.45,64.45c-35.59,0-64.45-28.85-64.45-64.45
	C29.29,74.23,86.41,0,93.73,0C101.06,0,158.18,74.23,158.18,109.82z"/>
<radialGradient id="SVGID_22_" cx="-189.4816" cy="435.4338" r="1" gradientTransform="matrix(93.9884 69.82 56.6143 -76.2115 -6829.5391 46454.6836)" gradientUnits="userSpaceOnUse">
	<stop  offset="0" style="stop-color:#FFFFFF;stop-opacity:0.79"/>
	<stop  offset="1" style="stop-color:#FFFFFF;stop-opacity:0"/>
</radialGradient>
<path class="st23" d="M158.18,109.82c0,35.59-28.85,64.45-64.45,64.45c-35.59,0-64.45-28.85-64.45-64.45
	C29.29,74.23,86.41,0,93.73,0C101.06,0,158.18,74.23,158.18,109.82z"/>
<radialGradient id="SVGID_23_" cx="-184.0172" cy="433.2187" r="1" gradientTransform="matrix(33.5674 33.5674 24.3799 -24.3799 -4344.8237 16794.9297)" gradientUnits="userSpaceOnUse">
	<stop  offset="0" style="stop-color:#FFFFFF;stop-opacity:0.49"/>
	<stop  offset="1" style="stop-color:#FFFFFF;stop-opacity:0"/>
</radialGradient>
<path class="st24" d="M158.18,109.82c0,35.59-28.85,64.45-64.45,64.45c-35.59,0-64.45-28.85-64.45-64.45
	C29.29,74.23,86.41,0,93.73,0C101.06,0,158.18,74.23,158.18,109.82z"/>
<radialGradient id="SVGID_24_" cx="-181.0153" cy="433.764" r="1" gradientTransform="matrix(23.4362 27.8305 22.963 -19.3373 -5599.5928 13535.374)" gradientUnits="userSpaceOnUse">
	<stop  offset="0" style="stop-color:#FFFFFF;stop-opacity:0.15"/>
	<stop  offset="1" style="stop-color:#FFFFFF;stop-opacity:0"/>
</radialGradient>
<path class="st25" d="M158.18,109.82c0,35.59-28.85,64.45-64.45,64.45c-35.59,0-64.45-28.85-64.45-64.45
	C29.29,74.23,86.41,0,93.73,0C101.06,0,158.18,74.23,158.18,109.82z"/>
<g class="st9">
	
		<linearGradient id="SVGID_25_" gradientUnits="userSpaceOnUse" x1="73.3696" y1="-11.2488" x2="102.9089" y2="-107.9231" gradientTransform="matrix(1 0 0 -1 0.0278 33.4126)">
		<stop  offset="0" style="stop-color:#1A736A"/>
		<stop  offset="1" style="stop-color:#1A736A"/>
	</linearGradient>
	<path class="st26" d="M158.18,109.82c0,35.6-28.85,64.45-64.45,64.45c-35.59,0-64.45-28.85-64.45-64.45
		C29.29,74.23,86.41,0,93.73,0C101.06,0,158.18,74.23,158.18,109.82z"/>
	
		<radialGradient id="SVGID_26_" cx="-194.8154" cy="430.8028" r="1" gradientTransform="matrix(48.3371 -42.9662 -41.1851 -46.3333 27133.8574 11734.752)" gradientUnits="userSpaceOnUse">
		<stop  offset="0.0885" style="stop-color:#F2887E"/>
		<stop  offset="1" style="stop-color:#F2887E;stop-opacity:0.58"/>
	</radialGradient>
	<path class="st27" d="M158.18,109.82c0,35.6-28.85,64.45-64.45,64.45c-35.59,0-64.45-28.85-64.45-64.45
		C29.29,74.23,86.41,0,93.73,0C101.06,0,158.18,74.23,158.18,109.82z"/>
	
		<radialGradient id="SVGID_27_" cx="-199.3369" cy="439.635" r="1" gradientTransform="matrix(-42.9659 -49.68 -47.6206 41.1848 12442.0576 -27843.1406)" gradientUnits="userSpaceOnUse">
		<stop  offset="0" style="stop-color:#9BBFAB"/>
		<stop  offset="1" style="stop-color:#9BBFAB;stop-opacity:0"/>
	</radialGradient>
	<path class="st28" d="M158.18,109.82c0,35.6-28.85,64.45-64.45,64.45c-35.59,0-64.45-28.85-64.45-64.45
		C29.29,74.23,86.41,0,93.73,0C101.06,0,158.18,74.23,158.18,109.82z"/>
	
		<radialGradient id="SVGID_28_" cx="-192.7333" cy="443.4514" r="1" gradientTransform="matrix(-72.5056 34.9102 33.463 69.4999 -28706.1191 -23991.0527)" gradientUnits="userSpaceOnUse">
		<stop  offset="0" style="stop-color:#F2E4DC"/>
		<stop  offset="1" style="stop-color:#F2E4DC;stop-opacity:0"/>
	</radialGradient>
	<path class="st29" d="M158.18,109.82c0,35.6-28.85,64.45-64.45,64.45c-35.59,0-64.45-28.85-64.45-64.45
		C29.29,74.23,86.41,0,93.73,0C101.06,0,158.18,74.23,158.18,109.82z"/>
	
		<radialGradient id="SVGID_29_" cx="-189.4839" cy="441.9765" r="1" gradientTransform="matrix(-37.0703 75.3734 72.2489 35.5336 -38901.5742 -1377.6115)" gradientUnits="userSpaceOnUse">
		<stop  offset="0" style="stop-color:#09403A"/>
		<stop  offset="1" style="stop-color:#09403A;stop-opacity:0"/>
	</radialGradient>
	<path class="st30" d="M158.18,109.82c0,35.6-28.85,64.45-64.45,64.45c-35.59,0-64.45-28.85-64.45-64.45
		C29.29,74.23,86.41,0,93.73,0C101.06,0,158.18,74.23,158.18,109.82z"/>
	
		<radialGradient id="SVGID_30_" cx="-189.4619" cy="435.7021" r="1" gradientTransform="matrix(92.0627 76.4175 61.9636 -74.6496 -9613.1328 47043.1836)" gradientUnits="userSpaceOnUse">
		<stop  offset="0" style="stop-color:#FFFFFF;stop-opacity:0.79"/>
		<stop  offset="1" style="stop-color:#FFFFFF;stop-opacity:0"/>
	</radialGradient>
	<path class="st31" d="M158.18,109.82c0,35.6-28.85,64.45-64.45,64.45c-35.59,0-64.45-28.85-64.45-64.45
		C29.29,74.23,86.41,0,93.73,0C101.06,0,158.18,74.23,158.18,109.82z"/>
	
		<radialGradient id="SVGID_31_" cx="-186.7392" cy="434.3481" r="1" gradientTransform="matrix(49.3431 46.8434 34.0222 -35.8378 -5594.1738 24369.6934)" gradientUnits="userSpaceOnUse">
		<stop  offset="0" style="stop-color:#FFFFFF;stop-opacity:0.49"/>
		<stop  offset="1" style="stop-color:#FFFFFF;stop-opacity:0"/>
	</radialGradient>
	<path class="st32" d="M158.18,109.82c0,35.6-28.85,64.45-64.45,64.45c-35.59,0-64.45-28.85-64.45-64.45
		C29.29,74.23,86.41,0,93.73,0C101.06,0,158.18,74.23,158.18,109.82z"/>
	
		<radialGradient id="SVGID_32_" cx="-184.8012" cy="428.5818" r="1" gradientTransform="matrix(37.5641 15.251 12.5837 -30.9943 1598.386 16211.8213)" gradientUnits="userSpaceOnUse">
		<stop  offset="0" style="stop-color:#F2E4DC;stop-opacity:0.49"/>
		<stop  offset="1" style="stop-color:#F2E4DC;stop-opacity:0.43"/>
	</radialGradient>
	<path class="st33" d="M158.18,109.82c0,35.6-28.85,64.45-64.45,64.45c-35.59,0-64.45-28.85-64.45-64.45
		C29.29,74.23,86.41,0,93.73,0C101.06,0,158.18,74.23,158.18,109.82z"/>
</g>
</svg>
