<?xml version="1.0" encoding="utf-8"?>
<!-- Generator: Adobe Illustrator 25.0.1, SVG Export Plug-In . SVG Version: 6.00 Build 0)  -->
<svg version="1.1" id="Layer_1" xmlns="http://www.w3.org/2000/svg" xmlns:xlink="http://www.w3.org/1999/xlink" x="0px" y="0px"
	 viewBox="0 0 214.32 289.38" style="enable-background:new 0 0 214.32 289.38;" xml:space="preserve">
<style type="text/css">
	.st0{fill:#FFFFFF;fill-opacity:0.03;}
	.st1{opacity:0.14;}
	.st2{fill:url(#SVGID_1_);}
	.st3{fill:url(#SVGID_2_);}
	.st4{fill:url(#SVGID_3_);}
	.st5{fill:url(#SVGID_4_);}
	.st6{fill:url(#SVGID_5_);}
	.st7{fill:url(#SVGID_6_);}
	.st8{fill:url(#SVGID_7_);}
	.st9{fill:url(#SVGID_8_);}
	.st10{opacity:0.5;}
	.st11{fill:url(#SVGID_9_);}
	.st12{fill:url(#SVGID_10_);}
	.st13{fill:url(#SVGID_11_);}
	.st14{fill:url(#SVGID_12_);}
	.st15{fill:url(#SVGID_13_);}
	.st16{fill:url(#SVGID_14_);}
	.st17{fill:url(#SVGID_15_);}
	.st18{fill:url(#SVGID_16_);}
	.st19{fill:url(#SVGID_17_);}
	.st20{fill:url(#SVGID_18_);}
	.st21{fill:url(#SVGID_19_);}
	.st22{fill:url(#SVGID_20_);}
	.st23{fill:url(#SVGID_21_);}
	.st24{fill:url(#SVGID_22_);}
	.st25{fill:url(#SVGID_23_);}
	.st26{fill:url(#SVGID_24_);}
	.st27{fill:url(#SVGID_25_);}
	.st28{fill:url(#SVGID_26_);}
	.st29{fill:url(#SVGID_27_);}
	.st30{fill:url(#SVGID_28_);}
	.st31{fill:url(#SVGID_29_);}
	.st32{fill:url(#SVGID_30_);}
	.st33{fill:url(#SVGID_31_);}
	.st34{fill:url(#SVGID_32_);}
	.st35{fill:#F1F2F2;}
</style>
<g>
	<circle class="st0" cx="107.16" cy="126.3" r="83.62"/>
</g>
<g class="st1">
	
		<linearGradient id="SVGID_1_" gradientUnits="userSpaceOnUse" x1="95.6182" y1="1771.2607" x2="132.9442" y2="1649.1022" gradientTransform="matrix(1 0 0 -1 -6 1838.9478)">
		<stop  offset="0" style="stop-color:#1A736A"/>
		<stop  offset="1" style="stop-color:#1A736A"/>
	</linearGradient>
	<circle class="st2" cx="107.16" cy="125.1" r="81.44"/>
	
		<radialGradient id="SVGID_2_" cx="719.4493" cy="1325.8234" r="0.7271" gradientTransform="matrix(83.9999 -74.6665 -71.5712 -80.5177 34503.1836 160640.2031)" gradientUnits="userSpaceOnUse">
		<stop  offset="0.0885" style="stop-color:#F2887E"/>
		<stop  offset="1" style="stop-color:#F2887E;stop-opacity:0.58"/>
	</radialGradient>
	<circle class="st3" cx="107.16" cy="125.1" r="81.44"/>
	
		<radialGradient id="SVGID_3_" cx="728.8928" cy="1319.1259" r="0.7271" gradientTransform="matrix(-74.6663 -86.3341 -82.7549 71.5709 163756.1406 -31286.3555)" gradientUnits="userSpaceOnUse">
		<stop  offset="0" style="stop-color:#9BBFAB"/>
		<stop  offset="1" style="stop-color:#9BBFAB;stop-opacity:0"/>
	</radialGradient>
	<circle class="st4" cx="107.16" cy="125.1" r="81.44"/>
	
		<radialGradient id="SVGID_4_" cx="723.9021" cy="1311.246" r="0.7271" gradientTransform="matrix(-125.9996 60.6666 58.1518 120.7765 15174.126 -202171.1875)" gradientUnits="userSpaceOnUse">
		<stop  offset="0" style="stop-color:#F2E4DC"/>
		<stop  offset="1" style="stop-color:#F2E4DC;stop-opacity:0"/>
	</radialGradient>
	<circle class="st5" cx="107.16" cy="125.1" r="81.44"/>
	
		<radialGradient id="SVGID_5_" cx="719.547" cy="1309.972" r="0.7271" gradientTransform="matrix(-56 112.0002 107.3572 53.6785 -100192.4844 -150863.1094)" gradientUnits="userSpaceOnUse">
		<stop  offset="0" style="stop-color:#9BBFAB"/>
		<stop  offset="1" style="stop-color:#9BBFAB;stop-opacity:0"/>
	</radialGradient>
	<circle class="st6" cx="107.16" cy="125.1" r="81.44"/>
	
		<radialGradient id="SVGID_6_" cx="716.4369" cy="1317.5647" r="0.7271" gradientTransform="matrix(163.3334 121.3335 98.384 -132.4398 -246639.9844 87607.1094)" gradientUnits="userSpaceOnUse">
		<stop  offset="0" style="stop-color:#FFFFFF;stop-opacity:0.79"/>
		<stop  offset="1" style="stop-color:#FFFFFF;stop-opacity:0"/>
	</radialGradient>
	<circle class="st7" cx="107.16" cy="125.1" r="81.44"/>
	
		<radialGradient id="SVGID_7_" cx="710.0972" cy="1315.5481" r="0.7271" gradientTransform="matrix(58.3333 58.3333 42.3674 -42.3674 -97119.3516 14371.2021)" gradientUnits="userSpaceOnUse">
		<stop  offset="0" style="stop-color:#FFFFFF;stop-opacity:0.49"/>
		<stop  offset="1" style="stop-color:#FFFFFF;stop-opacity:0"/>
	</radialGradient>
	<circle class="st8" cx="107.16" cy="125.1" r="81.44"/>
	
		<radialGradient id="SVGID_8_" cx="706.3848" cy="1313.6063" r="0.7271" gradientTransform="matrix(40.7273 48.3637 39.905 -33.6042 -81050.0078 10104.4844)" gradientUnits="userSpaceOnUse">
		<stop  offset="0" style="stop-color:#FFFFFF;stop-opacity:0.15"/>
		<stop  offset="1" style="stop-color:#FFFFFF;stop-opacity:0"/>
	</radialGradient>
	<circle class="st9" cx="107.16" cy="125.1" r="81.44"/>
	<g class="st10">
		
			<linearGradient id="SVGID_9_" gradientUnits="userSpaceOnUse" x1="95.6182" y1="1771.2607" x2="132.9442" y2="1649.1022" gradientTransform="matrix(1 0 0 -1 -6 1838.9478)">
			<stop  offset="0" style="stop-color:#1A736A"/>
			<stop  offset="1" style="stop-color:#1A736A"/>
		</linearGradient>
		<circle class="st11" cx="107.16" cy="125.1" r="81.44"/>
		
			<radialGradient id="SVGID_10_" cx="719.4493" cy="1325.8234" r="0.7271" gradientTransform="matrix(83.9999 -74.6665 -71.5712 -80.5177 34503.1836 160640.2031)" gradientUnits="userSpaceOnUse">
			<stop  offset="0.0885" style="stop-color:#F2887E"/>
			<stop  offset="1" style="stop-color:#F2887E;stop-opacity:0.58"/>
		</radialGradient>
		<circle class="st12" cx="107.16" cy="125.1" r="81.44"/>
		
			<radialGradient id="SVGID_11_" cx="728.8928" cy="1319.1259" r="0.7271" gradientTransform="matrix(-74.6663 -86.3341 -82.7549 71.5709 163756.1406 -31286.3555)" gradientUnits="userSpaceOnUse">
			<stop  offset="0" style="stop-color:#9BBFAB"/>
			<stop  offset="1" style="stop-color:#9BBFAB;stop-opacity:0"/>
		</radialGradient>
		<circle class="st13" cx="107.16" cy="125.1" r="81.44"/>
		
			<radialGradient id="SVGID_12_" cx="723.9021" cy="1311.246" r="0.7271" gradientTransform="matrix(-125.9996 60.6666 58.1518 120.7765 15174.126 -202171.1875)" gradientUnits="userSpaceOnUse">
			<stop  offset="0" style="stop-color:#F2E4DC"/>
			<stop  offset="1" style="stop-color:#F2E4DC;stop-opacity:0"/>
		</radialGradient>
		<circle class="st14" cx="107.16" cy="125.1" r="81.44"/>
		
			<radialGradient id="SVGID_13_" cx="719.6703" cy="1311.0453" r="0.7271" gradientTransform="matrix(-64.4206 130.9834 125.5536 61.7501 -118096.9297 -175178.3438)" gradientUnits="userSpaceOnUse">
			<stop  offset="0" style="stop-color:#9BBFAB"/>
			<stop  offset="1" style="stop-color:#9BBFAB;stop-opacity:0"/>
		</radialGradient>
		<circle class="st15" cx="107.16" cy="125.1" r="81.44"/>
		
			<radialGradient id="SVGID_14_" cx="716.5303" cy="1317.2855" r="0.7271" gradientTransform="matrix(159.9858 132.7978 107.6804 -129.7261 -256475.1875 75769.5391)" gradientUnits="userSpaceOnUse">
			<stop  offset="0" style="stop-color:#FFFFFF;stop-opacity:0.79"/>
			<stop  offset="1" style="stop-color:#FFFFFF;stop-opacity:0"/>
		</radialGradient>
		<circle class="st16" cx="107.16" cy="125.1" r="81.44"/>
		
			<radialGradient id="SVGID_15_" cx="713.2792" cy="1316.3953" r="0.7271" gradientTransform="matrix(85.7486 81.4045 59.1238 -62.2788 -138953.6406 23976.666)" gradientUnits="userSpaceOnUse">
			<stop  offset="0" style="stop-color:#FFFFFF;stop-opacity:0.49"/>
			<stop  offset="1" style="stop-color:#FFFFFF;stop-opacity:0"/>
		</radialGradient>
		<circle class="st17" cx="107.16" cy="125.1" r="81.44"/>
		
			<radialGradient id="SVGID_16_" cx="707.9878" cy="1321.6597" r="0.7271" gradientTransform="matrix(65.2788 26.5031 21.8678 -53.8618 -74977.2891 52548.1758)" gradientUnits="userSpaceOnUse">
			<stop  offset="0" style="stop-color:#FFFFFF;stop-opacity:0.49"/>
			<stop  offset="1" style="stop-color:#F2E4DC;stop-opacity:0.43"/>
		</radialGradient>
		<circle class="st18" cx="107.16" cy="125.1" r="81.44"/>
	</g>
</g>
<linearGradient id="SVGID_17_" gradientUnits="userSpaceOnUse" x1="97.3493" y1="1765.1298" x2="129.136" y2="1661.1003" gradientTransform="matrix(1 0 0 -1 -6 1838.9478)">
	<stop  offset="0" style="stop-color:#1A736A"/>
	<stop  offset="1" style="stop-color:#1A736A"/>
</linearGradient>
<path class="st19" d="M176.06,122.58c0,38.3-31.05,69.35-69.35,69.35c-38.3,0-69.35-31.05-69.35-69.35S98.83,4.41,106.71,4.41
	C114.59,4.41,176.06,84.28,176.06,122.58z"/>
<radialGradient id="SVGID_18_" cx="719.1826" cy="1327.274" r="0.7271" gradientTransform="matrix(71.5338 -63.5855 -60.9496 -68.5683 29505.625 136898.7031)" gradientUnits="userSpaceOnUse">
	<stop  offset="0.0885" style="stop-color:#F2887E"/>
	<stop  offset="1" style="stop-color:#F2887E;stop-opacity:0.58"/>
</radialGradient>
<path class="st20" d="M176.06,122.58c0,38.3-31.05,69.35-69.35,69.35c-38.3,0-69.35-31.05-69.35-69.35S98.83,4.41,106.71,4.41
	C114.59,4.41,176.06,84.28,176.06,122.58z"/>
<radialGradient id="SVGID_19_" cx="730.2584" cy="1319.4193" r="0.7271" gradientTransform="matrix(-63.585 -73.5212 -70.4734 60.9492 139576.2031 -26544.7598)" gradientUnits="userSpaceOnUse">
	<stop  offset="0" style="stop-color:#9BBFAB"/>
	<stop  offset="1" style="stop-color:#9BBFAB;stop-opacity:0"/>
</radialGradient>
<path class="st21" d="M176.06,122.58c0,38.3-31.05,69.35-69.35,69.35c-38.3,0-69.35-31.05-69.35-69.35S98.83,4.41,106.71,4.41
	C114.59,4.41,176.06,84.28,176.06,122.58z"/>
<radialGradient id="SVGID_20_" cx="724.4149" cy="1310.1863" r="0.7271" gradientTransform="matrix(-107.3002 51.6632 49.5219 102.8529 13044.7295 -172069.5781)" gradientUnits="userSpaceOnUse">
	<stop  offset="0" style="stop-color:#F2E4DC"/>
	<stop  offset="1" style="stop-color:#F2E4DC;stop-opacity:0"/>
</radialGradient>
<path class="st22" d="M176.06,122.58c0,38.3-31.05,69.35-69.35,69.35c-38.3,0-69.35-31.05-69.35-69.35S98.83,4.41,106.71,4.41
	C114.59,4.41,176.06,84.28,176.06,122.58z"/>
<radialGradient id="SVGID_21_" cx="719.3057" cy="1308.6703" r="0.7271" gradientTransform="matrix(-47.689 95.3782 91.4248 45.7123 -85200.5859 -128375.1875)" gradientUnits="userSpaceOnUse">
	<stop  offset="0" style="stop-color:#09403A"/>
	<stop  offset="1" style="stop-color:#09403A;stop-opacity:0"/>
</radialGradient>
<path class="st23" d="M176.06,122.58c0,38.3-31.05,69.35-69.35,69.35c-38.3,0-69.35-31.05-69.35-69.35S98.83,4.41,106.71,4.41
	C114.59,4.41,176.06,84.28,176.06,122.58z"/>
<radialGradient id="SVGID_22_" cx="715.6548" cy="1317.5798" r="0.7271" gradientTransform="matrix(139.093 103.3263 83.783 -112.7847 -209913.3125 74704.2656)" gradientUnits="userSpaceOnUse">
	<stop  offset="0" style="stop-color:#FFFFFF;stop-opacity:0.79"/>
	<stop  offset="1" style="stop-color:#FFFFFF;stop-opacity:0"/>
</radialGradient>
<path class="st24" d="M176.06,122.58c0,38.3-31.05,69.35-69.35,69.35c-38.3,0-69.35-31.05-69.35-69.35S98.83,4.41,106.71,4.41
	C114.59,4.41,176.06,84.28,176.06,122.58z"/>
<radialGradient id="SVGID_23_" cx="708.1846" cy="1315.2018" r="0.7271" gradientTransform="matrix(49.6762 49.6762 36.0797 -36.0797 -82583.1094 12336.9268)" gradientUnits="userSpaceOnUse">
	<stop  offset="0" style="stop-color:#FFFFFF;stop-opacity:0.49"/>
	<stop  offset="1" style="stop-color:#FFFFFF;stop-opacity:0"/>
</radialGradient>
<path class="st25" d="M176.06,122.58c0,38.3-31.05,69.35-69.35,69.35c-38.3,0-69.35-31.05-69.35-69.35S98.83,4.41,106.71,4.41
	C114.59,4.41,176.06,84.28,176.06,122.58z"/>
<radialGradient id="SVGID_24_" cx="703.9265" cy="1312.9518" r="0.7271" gradientTransform="matrix(34.683 41.1861 33.9828 -28.6171 -68898.5625 8703.4355)" gradientUnits="userSpaceOnUse">
	<stop  offset="0" style="stop-color:#FFFFFF;stop-opacity:0.15"/>
	<stop  offset="1" style="stop-color:#FFFFFF;stop-opacity:0"/>
</radialGradient>
<path class="st26" d="M176.06,122.58c0,38.3-31.05,69.35-69.35,69.35c-38.3,0-69.35-31.05-69.35-69.35S98.83,4.41,106.71,4.41
	C114.59,4.41,176.06,84.28,176.06,122.58z"/>
<g class="st10">
	
		<linearGradient id="SVGID_25_" gradientUnits="userSpaceOnUse" x1="90.825" y1="1786.4825" x2="122.6117" y2="1682.4536" gradientTransform="matrix(1 0 0 -1 -6 1838.9478)">
		<stop  offset="0" style="stop-color:#1A736A"/>
		<stop  offset="1" style="stop-color:#1A736A"/>
	</linearGradient>
	<path class="st27" d="M176.06,122.58c0,38.3-31.05,69.35-69.35,69.35c-38.3,0-69.35-31.05-69.35-69.35S98.83,4.41,106.71,4.41
		C114.59,4.41,176.06,84.28,176.06,122.58z"/>
	
		<radialGradient id="SVGID_26_" cx="719.4064" cy="1327.0664" r="0.7271" gradientTransform="matrix(71.5338 -63.5855 -60.9496 -68.5683 29400.5566 136898.7031)" gradientUnits="userSpaceOnUse">
		<stop  offset="0.0885" style="stop-color:#F2887E"/>
		<stop  offset="1" style="stop-color:#F2887E;stop-opacity:0.58"/>
	</radialGradient>
	<path class="st28" d="M176.06,122.58c0,38.3-31.05,69.35-69.35,69.35c-38.3,0-69.35-31.05-69.35-69.35S98.83,4.41,106.71,4.41
		C114.59,4.41,176.06,84.28,176.06,122.58z"/>
	
		<radialGradient id="SVGID_27_" cx="730.0654" cy="1319.1866" r="0.7271" gradientTransform="matrix(-63.585 -73.5212 -70.4734 60.9492 139471.1406 -26544.7617)" gradientUnits="userSpaceOnUse">
		<stop  offset="0" style="stop-color:#9BBFAB"/>
		<stop  offset="1" style="stop-color:#9BBFAB;stop-opacity:0"/>
	</radialGradient>
	<path class="st29" d="M176.06,122.58c0,38.3-31.05,69.35-69.35,69.35c-38.3,0-69.35-31.05-69.35-69.35S98.83,4.41,106.71,4.41
		C114.59,4.41,176.06,84.28,176.06,122.58z"/>
	
		<radialGradient id="SVGID_28_" cx="724.1979" cy="1310.2952" r="0.7271" gradientTransform="matrix(-107.3002 51.6632 49.5219 102.8529 12939.6631 -172069.5781)" gradientUnits="userSpaceOnUse">
		<stop  offset="0" style="stop-color:#F2E4DC"/>
		<stop  offset="1" style="stop-color:#F2E4DC;stop-opacity:0"/>
	</radialGradient>
	<path class="st30" d="M176.06,122.58c0,38.3-31.05,69.35-69.35,69.35c-38.3,0-69.35-31.05-69.35-69.35S98.83,4.41,106.71,4.41
		C114.59,4.41,176.06,84.28,176.06,122.58z"/>
	
		<radialGradient id="SVGID_29_" cx="719.3546" cy="1310.1459" r="0.7271" gradientTransform="matrix(-54.86 111.5442 106.9202 52.5858 -100552.3359 -149081.6875)" gradientUnits="userSpaceOnUse">
		<stop  offset="0" style="stop-color:#09403A"/>
		<stop  offset="1" style="stop-color:#09403A;stop-opacity:0"/>
	</radialGradient>
	<path class="st31" d="M176.06,122.58c0,38.3-31.05,69.35-69.35,69.35c-38.3,0-69.35-31.05-69.35-69.35S98.83,4.41,106.71,4.41
		C114.59,4.41,176.06,84.28,176.06,122.58z"/>
	
		<radialGradient id="SVGID_30_" cx="715.8901" cy="1317.377" r="0.7271" gradientTransform="matrix(136.2427 113.0895 91.6996 -110.4735 -218394.0781 64623)" gradientUnits="userSpaceOnUse">
		<stop  offset="0" style="stop-color:#FFFFFF;stop-opacity:0.79"/>
		<stop  offset="1" style="stop-color:#FFFFFF;stop-opacity:0"/>
	</radialGradient>
	<path class="st32" d="M176.06,122.58c0,38.3-31.05,69.35-69.35,69.35c-38.3,0-69.35-31.05-69.35-69.35S98.83,4.41,106.71,4.41
		C114.59,4.41,176.06,84.28,176.06,122.58z"/>
	
		<radialGradient id="SVGID_31_" cx="712.1472" cy="1316.4713" r="0.7271" gradientTransform="matrix(73.0228 69.3234 50.3493 -53.0362 -118313.9609 20516.9219)" gradientUnits="userSpaceOnUse">
		<stop  offset="0" style="stop-color:#FFFFFF;stop-opacity:0.49"/>
		<stop  offset="1" style="stop-color:#FFFFFF;stop-opacity:0"/>
	</radialGradient>
	<path class="st33" d="M176.06,122.58c0,38.3-31.05,69.35-69.35,69.35c-38.3,0-69.35-31.05-69.35-69.35S98.83,4.41,106.71,4.41
		C114.59,4.41,176.06,84.28,176.06,122.58z"/>
	
		<radialGradient id="SVGID_32_" cx="706.253" cy="1322.605" r="0.7271" gradientTransform="matrix(55.5909 22.5698 18.6225 -45.8683 -63832.1797 44848.1758)" gradientUnits="userSpaceOnUse">
		<stop  offset="0" style="stop-color:#F2E4DC;stop-opacity:0.49"/>
		<stop  offset="1" style="stop-color:#F2E4DC;stop-opacity:0.43"/>
	</radialGradient>
	<path class="st34" d="M176.06,122.58c0,38.3-31.05,69.35-69.35,69.35c-38.3,0-69.35-31.05-69.35-69.35S98.83,4.41,106.71,4.41
		C114.59,4.41,176.06,84.28,176.06,122.58z"/>
</g>
<g class="st10">
	<path class="st35" d="M32.79,261.1c-10.4,0-20.43-3.9-20.43-14.42c0-11.21,11.74-14.42,20.43-14.42c6.17,0,11.33,0.85,16.37,3.13
		l-1.54,5.81c-4.06-1.83-9.06-2.92-14.14-2.92c-8.37,0-13.16,3.09-13.16,8.45s5.04,8.37,13.16,8.41c5.85,0,10.07-1.22,14.18-2.88
		l1.54,5.73C44.28,260,39.49,261.1,32.79,261.1z"/>
	<path class="st35" d="M61.55,261.1c-7.68,0-10.48-6.82-10.48-14.42c0-7.64,2.88-14.42,10.48-14.42c7.76,0,10.48,6.66,10.48,14.42
		C72.03,254.15,69.1,261.1,61.55,261.1z M61.55,237.9c-2.84,0-3.53,3.53-3.53,8.77c0,5.32,0.73,8.77,3.53,8.77
		c2.84,0,3.53-3.53,3.53-8.77C65.08,241.07,64.31,237.9,61.55,237.9z"/>
	<path class="st35" d="M87.14,260.65c-8.25,0-11.98-6.17-11.98-14.3c0-6.5,2.76-13.65,14.09-13.65c1.3,0,2.6,0.04,3.9,0.16
		l-0.2,5.81c-1.06-0.04-2.11-0.08-3.05-0.08c-6.13,0-7.68,3.37-7.68,8.29c0,4.1,0.89,8.16,4.18,8.16c0.37,0,0.77-0.04,1.06-0.16
		v-9.3h6.62v13.89C91.97,260.2,89.58,260.65,87.14,260.65z"/>
	<path class="st35" d="M98.72,260.37v-27.38h32.66v5.81h-25.02v4.1h25.02v5.56h-25.02v6.09h25.02v5.81H98.72z"/>
	<path class="st35" d="M153.84,260.37V247.2l-5.04,5.28h-0.53l-4.92-5.16v13.04h-6.95v-27.7h1.02l11.17,11.29l11.17-11.29h1.02v27.7
		H153.84z"/>
	<path class="st35" d="M175.33,261.1c-7.68,0-10.48-6.82-10.48-14.42c0-7.64,2.88-14.42,10.48-14.42c7.76,0,10.48,6.66,10.48,14.42
		C185.81,254.15,182.88,261.1,175.33,261.1z M175.33,237.9c-2.84,0-3.53,3.53-3.53,8.77c0,5.32,0.73,8.77,3.53,8.77
		c2.84,0,3.53-3.53,3.53-8.77C178.86,241.07,178.09,237.9,175.33,237.9z"/>
	<path class="st35" d="M199.5,238.84v21.53h-6.95v-21.53h-5.56v-5.85h18.08v5.85H199.5z"/>
</g>
</svg>
