<svg id="Layer_1" data-name="Layer 1" xmlns="http://www.w3.org/2000/svg" viewBox="0 0 87.63 104.76"><defs><style>.cls-1{fill:#f2e4dc;}.cls-2{fill:#1a736a;}.cls-3{fill:#09403a;}</style></defs><circle class="cls-1" cx="43.96" cy="43.65" r="34.92"/><path class="cls-2" d="M84.63,27.78A43.66,43.66,0,1,0,28.08,84.31L42.55,104a1.74,1.74,0,0,0,2.44.38,1.52,1.52,0,0,0,.38-.38L59.84,84.31A43.64,43.64,0,0,0,84.63,27.78ZM44,78.57A34.92,34.92,0,1,1,78.88,43.65,34.91,34.91,0,0,1,44,78.57Z"/><circle class="cls-3" cx="59.57" cy="39.04" r="4.99"/><circle class="cls-3" cx="28.36" cy="39.04" r="4.99"/><path class="cls-3" d="M58.11,54.34a21.52,21.52,0,0,1-28.29,0,2.2,2.2,0,0,0-2.92,3.28,26,26,0,0,0,34.14,0,2.2,2.2,0,0,0-2.93-3.28Z"/><path class="cls-3" d="M59.57,27.38A11.69,11.69,0,0,0,48.4,35.72a15.75,15.75,0,0,0-8.87,0,11.66,11.66,0,0,0-22.33-.06l-2.94-1.21a1.76,1.76,0,0,0-1.34,3.25l3.79,1.56a11.65,11.65,0,0,0,23.3,0,12.05,12.05,0,0,1,7.91,0,11.65,11.65,0,0,0,23.3,0L75,37.73a1.76,1.76,0,1,0-1.32-3.26l-3,1.2A11.68,11.68,0,0,0,59.57,27.38ZM28.36,47.19A8.15,8.15,0,1,1,36.5,39,8.16,8.16,0,0,1,28.36,47.19Zm31.21,0A8.15,8.15,0,1,1,67.72,39,8.16,8.16,0,0,1,59.57,47.19Z"/></svg>